<?xml version="1.0" standalone="no"?><!DOCTYPE svg PUBLIC "-//W3C//DTD SVG 1.1//EN" "http://www.w3.org/Graphics/SVG/1.1/DTD/svg11.dtd"><svg t="1706932410098" class="icon" viewBox="0 0 1024 1024" version="1.1" xmlns="http://www.w3.org/2000/svg" p-id="9532" xmlns:xlink="http://www.w3.org/1999/xlink" width="200" height="200"><path d="M860.16 111.616c-16.384-16.384-37.376-24.064-58.368-24.064h-82.944v41.472h82.944c10.752 0 20.992 4.096 29.184 12.288 8.192 8.192 12.288 18.944 12.288 29.184V916.48c0 10.752-4.096 20.992-12.288 29.184-8.192 8.192-18.944 12.288-29.184 12.288H221.184c-10.752 0-20.992-4.096-29.184-12.288-8.192-8.192-12.288-18.944-12.288-29.184V169.984c0-10.752 4.096-20.992 12.288-29.184 8.192-8.192 18.944-12.288 29.184-12.288h82.944V87.04H221.184c-20.992 0-42.496 8.192-58.368 24.064-16.384 16.384-24.064 37.376-24.064 58.368V916.48c0 20.992 8.192 42.496 24.064 58.368 16.384 16.384 37.376 24.064 58.368 24.064h580.096c20.992 0 42.496-8.192 58.368-24.064 16.384-16.384 24.064-37.376 24.064-58.368V169.984c1.024-20.992-7.168-42.496-23.552-58.368z m0 0" fill="#3ACC75" p-id="9533"></path><path d="M428.544 87.04h165.888v41.472H428.544zM366.592 190.976c11.264 0 20.48-9.216 20.48-20.48V45.568c0-11.264-9.216-20.48-20.48-20.48s-20.48 9.216-20.48 20.48v124.416c-0.512 11.776 8.704 20.992 20.48 20.992z m0 0M656.384 190.976c11.264 0 20.48-9.216 20.48-20.48V45.568c0-11.264-9.216-20.48-20.48-20.48s-20.48 9.216-20.48 20.48v124.416c0 11.776 9.216 20.992 20.48 20.992z m0 0M760.32 335.872H387.072c-11.264 0-20.48 9.216-20.48 20.48s9.216 20.48 20.48 20.48h373.248c11.264 0 20.48-9.216 20.48-20.48s-9.216-20.48-20.48-20.48z m0 0M262.656 335.872c-11.264 0-20.48 9.216-20.48 20.48s9.216 20.48 20.48 20.48h41.472c11.264 0 20.48-9.216 20.48-20.48s-9.216-20.48-20.48-20.48h-41.472z m0 0M760.32 501.76H387.072c-11.264 0-20.48 9.216-20.48 20.48s9.216 20.48 20.48 20.48h373.248c11.264 0 20.48-9.216 20.48-20.48s-9.216-20.48-20.48-20.48z m0 0M304.128 501.76h-41.472c-11.264 0-20.48 9.216-20.48 20.48s9.216 20.48 20.48 20.48h41.472c11.264 0 20.48-9.216 20.48-20.48 0.512-11.264-8.704-20.48-20.48-20.48z m0 0M760.32 667.648H387.072c-11.264 0-20.48 9.216-20.48 20.48s9.216 20.48 20.48 20.48h373.248c11.264 0 20.48-9.216 20.48-20.48s-9.216-20.48-20.48-20.48z m0 0M304.128 667.648h-41.472c-11.264 0-20.48 9.216-20.48 20.48s9.216 20.48 20.48 20.48h41.472c11.264 0 20.48-9.216 20.48-20.48 0.512-11.264-8.704-20.48-20.48-20.48z m0 0" fill="#3ACC75" p-id="9534"></path></svg>